# xmcd
#
# Track frame offsets:
#	150
#	19380
#	37610
#	53642
#	65590
#	85665
#	101060
#	118872
#	150252
#	179680
#	202392
#	228797
#	248350
#
# Disc length: 3596 seconds
#
# Revision: 1
# Processed by: cddbd v1.5.2PL0 Copyright (c) Steve Scherf et al.
# Submitted via: audiograbber 1.83.01
#
DISCID=a10e0a0d
DTITLE=Mary Chapin Carpenter - Passionate Kisses from Austin
DYEAR=1995
DGENRE=Country
TTITLE0=Never had it so good
TTITLE1=You Win Again
TTITLE2=Going out Tonight
TTITLE3=How Do
TTITLE4=Rhythm of the Blues
TTITLE5=Passionate Kisses
TTITLE6=Read my Lips
TTITLE7=Only a Dream
TTITLE8=Come on Come on
TTITLE9=He thinks he'll keep her
TTITLE10=The Moon and St. Christpher
TTITLE11=I Feel Lucky
TTITLE12=Never had it so good (Duet with Pete Kennedy on Guitar)
EXTD=Bootleg RSM Germany RSM 33 SQ\nLive in Austin 1992 except for \nTrack 13: 
EXTD=live 1993
EXTT0=
EXTT1=
EXTT2=
EXTT3=
EXTT4=
EXTT5=
EXTT6=
EXTT7=
EXTT8=
EXTT9=
EXTT10=
EXTT11=
EXTT12=
PLAYORDER=
